<?xml version="1.0" encoding="UTF-8"?>
<!-- Generator: Adobe Illustrator 17.0.0, SVG Export Plug-In . SVG Version: 6.00 Build 0)  -->
<svg version="1.2" baseProfile="tiny" id="Layer_1" xmlns="http://www.w3.org/2000/svg" xmlns:xlink="http://www.w3.org/1999/xlink" x="0px" y="0px" viewBox="0 0 350 90" overflow="visible" xml:space="preserve">
<g>
	<path fill="#18428F" d="M21.031,61.688c0.208-1.688,0.458-4.552,0.75-8.594c0.292-4.041,0.438-6.896,0.438-8.563l-14.313-25.5   c3.143,0.042,5.735,0.063,7.775,0.063c1.957,0,4.299-0.021,7.026-0.063c0.833,2.083,1.963,4.566,3.39,7.451   c1.427,2.885,2.588,5.462,3.484,7.732c2.395-4.228,4.32-7.523,5.778-9.887c1.458-2.364,2.499-4.129,3.124-5.295   c2.649,0.042,5.194,0.063,7.634,0.063c1.293,0,3.639-0.021,7.04-0.063L39.438,39.25c-2.729,4.042-4.094,6.156-4.094,6.344   l-0.031,0.313v0.313l-0.031,0.313l-0.218,4.75c-0.146,3.146-0.26,6.615-0.343,10.406c-2.938-0.041-5.209-0.063-6.813-0.063   C26.261,61.625,23.969,61.646,21.031,61.688z"/>
	<path fill="#18428F" d="M52.719,61.688c0.29-2.541,0.507-4.635,0.652-6.281c0.145-1.646,0.285-3.75,0.42-6.313   s0.254-5.396,0.357-8.5c0.104-3.104,0.186-6.708,0.249-10.813c2.71,0.042,4.878,0.063,6.505,0.063c1.48,0,3.606-0.021,6.379-0.063   c-0.358,3.938-0.616,7.396-0.774,10.375c-0.158,2.979-0.258,6.136-0.3,9.469c-0.084,5.917-0.126,9.938-0.126,12.063   c-2.477-0.041-4.61-0.063-6.4-0.063C57.912,61.625,55.591,61.646,52.719,61.688z M54.688,25.781   c0.125-2.479,0.188-4.438,0.188-5.875c0-0.417-0.011-0.979-0.031-1.688c2.521,0.042,4.635,0.063,6.344,0.063   c2.354,0,4.417-0.021,6.188-0.063c-0.063,0.646-0.104,1.188-0.125,1.625l-0.188,3.875C67.021,24.302,67,24.99,67,25.781   c-2.063-0.042-4.042-0.063-5.938-0.063C59.104,25.719,56.979,25.74,54.688,25.781z"/>
	<path fill="#18428F" d="M88.875,61.031c-0.271-4.438-0.583-7.989-0.938-10.656c2.337,1.042,4.419,1.766,6.246,2.172   s3.428,0.609,4.806,0.609c1.815,0,3.261-0.266,4.336-0.797c1.075-0.531,1.612-1.317,1.612-2.359c0-0.354-0.052-0.692-0.157-1.016   c-0.104-0.322-0.303-0.688-0.595-1.094c-0.292-0.406-0.71-0.849-1.252-1.328l-5.888-5.125c-1.378-1.167-2.338-2.01-2.881-2.531   c-1.106-1.063-1.968-2.052-2.583-2.969c-0.616-0.917-1.065-1.849-1.347-2.797c-0.282-0.948-0.422-1.953-0.422-3.016   c0-1.271,0.224-2.516,0.672-3.734c0.448-1.219,1.12-2.359,2.016-3.422c0.896-1.063,2.083-1.979,3.563-2.75   c1.479-0.771,3.063-1.297,4.75-1.578s3.427-0.422,5.219-0.422c3.521,0,7.354,0.406,11.5,1.219c0.063,1.438,0.135,2.755,0.219,3.953   c0.083,1.198,0.281,3.297,0.594,6.297c-1.917-0.771-3.667-1.307-5.25-1.609c-1.583-0.302-2.948-0.453-4.094-0.453   c-1.625,0-2.974,0.302-4.047,0.906c-1.073,0.604-1.609,1.354-1.609,2.25c0,0.417,0.083,0.823,0.25,1.219   c0.167,0.396,0.479,0.859,0.938,1.391c0.458,0.531,1.063,1.115,1.813,1.75c0.75,0.636,1.927,1.578,3.531,2.828l2.25,1.781   c0.667,0.542,1.385,1.198,2.156,1.969c0.771,0.771,1.438,1.531,2,2.281s0.995,1.438,1.297,2.063   c0.302,0.625,0.526,1.256,0.672,1.891c0.146,0.636,0.219,1.318,0.219,2.047c0,1.875-0.448,3.662-1.344,5.359   c-0.896,1.698-2.167,3.094-3.813,4.188c-1.646,1.094-3.453,1.859-5.422,2.297s-4.047,0.656-6.234,0.656   C98.281,62.5,94.021,62.01,88.875,61.031z"/>
	<path fill="#18428F" d="M121.656,75.969c-0.646-4.979-1.083-8.073-1.313-9.281c1.313,0.625,2.476,1.052,3.487,1.281   c1.011,0.229,1.882,0.344,2.611,0.344c0.771,0,1.496-0.104,2.173-0.313c0.678-0.209,1.214-0.464,1.611-0.766   c0.396-0.303,0.829-0.766,1.298-1.391c0.469-0.625,0.818-1.162,1.047-1.609c0.229-0.448,0.459-1.089,0.688-1.922l-5.88-17.781   l-5.036-14.75c3.106,0.042,5.286,0.063,6.537,0.063c1.459,0,3.451-0.021,5.974-0.063c0.396,1.604,1.131,4.375,2.205,8.313   c1.074,3.938,1.851,7.021,2.331,9.25c0.271,1.229,0.531,2.792,0.782,4.688l0.656-2.5c0.208-0.666,0.447-1.427,0.718-2.281   c0.271-0.854,0.614-1.875,1.031-3.063l2.03-5.688l3.372-8.719c2.602,0.042,4.569,0.063,5.902,0.063   c1.166,0,3.247-0.021,6.245-0.063l-6.026,13.625l-10.898,25.281c-0.709,1.416-1.386,2.541-2.033,3.375   c-0.604,0.75-1.261,1.406-1.97,1.969c-0.667,0.521-1.386,0.958-2.158,1.313c-1.042,0.479-2.189,0.854-3.439,1.125   c-1.376,0.291-2.773,0.438-4.19,0.438c-0.646,0-1.501-0.047-2.564-0.141c-1.063-0.094-1.923-0.188-2.58-0.281   S122.74,76.219,121.656,75.969z"/>
	<path fill="#18428F" d="M161.844,61.094c-0.084-0.916-0.167-1.88-0.25-2.891c-0.084-1.01-0.219-2.4-0.406-4.172l-0.25-2.25   c2.016,0.792,3.752,1.381,5.207,1.766c1.455,0.386,2.795,0.578,4.021,0.578c1.019,0,1.845-0.094,2.479-0.281   s1.097-0.458,1.388-0.813c0.291-0.354,0.437-0.719,0.437-1.094c0-0.333-0.109-0.661-0.327-0.984   c-0.218-0.322-0.712-0.766-1.48-1.328c-1.704-1.25-3.204-2.385-4.503-3.406c-1.299-1.021-2.275-1.927-2.93-2.719   c-0.654-0.792-1.152-1.646-1.496-2.563c-0.342-0.917-0.514-1.864-0.514-2.844c0-1.729,0.494-3.344,1.484-4.844   c0.989-1.5,2.447-2.588,4.375-3.266c1.927-0.677,4.275-1.016,7.047-1.016c2.896,0,6.594,0.375,11.094,1.125l0.5,8.75   c-2.521-1-4.948-1.5-7.281-1.5c-1.646,0-2.839,0.169-3.578,0.508c-0.74,0.339-1.109,0.857-1.109,1.555   c0,0.229,0.041,0.448,0.125,0.656c0.083,0.208,0.234,0.427,0.453,0.656c0.219,0.229,0.489,0.464,0.813,0.703   c0.322,0.24,1.109,0.797,2.359,1.672s2.229,1.594,2.938,2.156c1.166,0.917,2.057,1.766,2.672,2.547   c0.614,0.781,1.083,1.615,1.406,2.5c0.322,0.886,0.484,1.818,0.484,2.797c0,1.479-0.359,2.839-1.078,4.078   c-0.719,1.24-1.803,2.276-3.25,3.109c-1.448,0.834-3.016,1.411-4.703,1.734c-1.688,0.322-3.428,0.484-5.219,0.484   c-1.209,0-2.725-0.104-4.547-0.313C166.38,61.979,164.26,61.615,161.844,61.094z"/>
	<path fill="#18428F" d="M216.25,52.5c-0.375,1.75-0.698,3.459-0.969,5.125l-0.688,3.813c-2.063,0.458-3.672,0.75-4.828,0.875   s-2.276,0.188-3.359,0.188c-1.771,0-3.344-0.151-4.719-0.453c-1.375-0.303-2.521-0.854-3.438-1.656   c-0.917-0.802-1.542-1.724-1.875-2.766c-0.334-1.041-0.5-2.146-0.5-3.313c0-0.208,0.01-0.578,0.031-1.109   c0.02-0.531,0.093-1.713,0.217-3.547l0.684-10.813h-4.869c0.104-1.438,0.197-3.333,0.281-5.688l0.094-2.906h5.178   c0.124-0.958,0.279-3.052,0.466-6.281l5.35-1.094c0.979-0.188,3.065-0.667,6.257-1.438c-0.146,2.729-0.251,5.667-0.313,8.813h7.126   c-0.167,4.333-0.25,7.198-0.25,8.594h-7.189l-0.377,7.813c-0.042,1.167-0.063,1.917-0.063,2.25c0,1,0.109,1.834,0.328,2.5   c0.219,0.667,0.604,1.146,1.156,1.438c0.553,0.292,1.162,0.438,1.83,0.438c0.5,0,1.021-0.036,1.563-0.109   C213.916,53.1,214.874,52.875,216.25,52.5z"/>
	<path fill="#18428F" d="M251.188,52.25c-0.271,1.25-0.792,4.271-1.563,9.063c-2.417,0.479-4.448,0.797-6.094,0.953   c-1.646,0.156-3.313,0.234-5,0.234c-2.479,0-4.761-0.172-6.844-0.516c-2.084-0.343-3.881-0.951-5.391-1.826   c-1.511-0.873-2.776-1.961-3.797-3.262c-1.021-1.301-1.797-2.847-2.328-4.637s-0.797-3.632-0.797-5.526   c0-2.664,0.531-5.271,1.594-7.821s2.432-4.542,4.109-5.979c1.677-1.436,3.609-2.456,5.797-3.06s4.427-0.906,6.719-0.906   c2.375,0,4.641,0.276,6.797,0.828c2.156,0.552,3.984,1.516,5.484,2.891s2.567,2.927,3.203,4.656   c0.635,1.729,0.953,3.594,0.953,5.594c0,1.188-0.136,2.511-0.406,3.969l-21.906,0.031c-0.021,0.332-0.031,0.633-0.031,0.902   c0,2.24,0.802,3.891,2.406,4.948c1.604,1.058,3.563,1.587,5.875,1.587c1.375,0,2.942-0.161,4.703-0.484   C246.432,53.568,248.604,53.021,251.188,52.25z M231.969,42.156h10.313c0.021-0.354,0.031-0.656,0.031-0.906   c0-1.083-0.193-2.01-0.578-2.781c-0.386-0.771-0.938-1.333-1.656-1.688c-0.719-0.354-1.526-0.531-2.422-0.531   c-0.625,0-1.229,0.099-1.813,0.297c-0.584,0.198-1.109,0.49-1.578,0.875c-0.469,0.386-0.859,0.828-1.172,1.328   s-0.542,0.984-0.688,1.453C232.26,40.672,232.114,41.323,231.969,42.156z"/>
	<path fill="#18428F" d="M258.219,61.688l0.873-15.063l0.499-11.781l0.063-5.063c2.292,0.042,4.313,0.063,6.063,0.063   c1.98,0,3.908-0.021,5.783-0.063l-0.217,4.156c0.646-0.833,1.192-1.474,1.641-1.922c0.447-0.448,0.994-0.875,1.641-1.281   c0.645-0.406,1.313-0.729,2-0.969c0.688-0.239,1.457-0.432,2.312-0.578c0.854-0.146,1.75-0.219,2.688-0.219   c1.063,0,2.042,0.089,2.937,0.266c0.896,0.177,1.667,0.401,2.313,0.672c0.646,0.271,1.209,0.583,1.688,0.938   c0.479,0.354,0.9,0.755,1.266,1.203c0.364,0.448,0.786,1.099,1.266,1.953c0.916-1.333,1.885-2.344,2.906-3.031   c1.021-0.688,2.182-1.192,3.484-1.516c1.302-0.323,2.641-0.484,4.016-0.484c1.813,0,3.521,0.261,5.125,0.781   c1.604,0.521,2.922,1.422,3.953,2.703s1.547,2.943,1.547,4.984c0,0.958-0.068,2.406-0.205,4.344   c-0.138,1.938-0.328,5.266-0.57,9.984s-0.373,8.026-0.395,9.922c-1.915-0.041-3.768-0.063-5.557-0.063   c-2.186,0-4.475,0.021-6.867,0.063c0.21-2.646,0.426-5.963,0.646-9.953c0.221-3.989,0.33-6.755,0.33-8.297   c0-1.351-0.156-2.359-0.47-3.024s-0.716-1.119-1.206-1.362c-0.49-0.243-1.028-0.364-1.613-0.364c-0.626,0-1.169,0.116-1.629,0.347   c-0.5,0.252-0.939,0.641-1.314,1.166c-0.502,0.693-0.909,1.564-1.223,2.614c-0.25,0.819-0.449,2.069-0.595,3.749   c-0.146,1.709-0.261,3.959-0.345,6.75l-0.25,8.375c-2.227-0.041-4.235-0.063-6.025-0.063c-1.832,0-3.986,0.021-6.463,0.063   c0.189-1.854,0.412-4.969,0.665-9.344s0.38-7.302,0.38-8.781c0-1.25-0.125-2.188-0.375-2.813s-0.6-1.125-1.047-1.5   c-0.448-0.375-1.047-0.563-1.797-0.563c-0.813,0-1.521,0.24-2.125,0.719c-0.604,0.479-1.12,1.167-1.547,2.063   c-0.428,0.896-0.729,2.13-0.906,3.703c-0.178,1.573-0.339,3.975-0.484,7.203c-0.146,3.229-0.24,6.334-0.281,9.313   c-2.523-0.041-4.568-0.063-6.132-0.063C262.932,61.625,260.783,61.646,258.219,61.688z"/>
	<path fill="#18428F" d="M317.531,61.094c-0.084-0.916-0.167-1.88-0.25-2.891c-0.084-1.01-0.219-2.4-0.406-4.172l-0.25-2.25   c2.016,0.792,3.752,1.381,5.207,1.766c1.455,0.386,2.795,0.578,4.021,0.578c1.019,0,1.845-0.094,2.479-0.281   s1.097-0.458,1.388-0.813c0.291-0.354,0.437-0.719,0.437-1.094c0-0.333-0.109-0.661-0.327-0.984   c-0.218-0.322-0.712-0.766-1.48-1.328c-1.704-1.25-3.204-2.385-4.503-3.406c-1.299-1.021-2.275-1.927-2.93-2.719   c-0.654-0.792-1.152-1.646-1.496-2.563c-0.342-0.917-0.514-1.864-0.514-2.844c0-1.729,0.494-3.344,1.484-4.844   c0.989-1.5,2.447-2.588,4.375-3.266c1.927-0.677,4.275-1.016,7.047-1.016c2.896,0,6.594,0.375,11.094,1.125l0.5,8.75   c-2.521-1-4.948-1.5-7.281-1.5c-1.646,0-2.839,0.169-3.578,0.508c-0.74,0.339-1.109,0.857-1.109,1.555   c0,0.229,0.041,0.448,0.125,0.656c0.083,0.208,0.234,0.427,0.453,0.656c0.219,0.229,0.489,0.464,0.813,0.703   c0.322,0.24,1.109,0.797,2.359,1.672s2.229,1.594,2.938,2.156c1.166,0.917,2.057,1.766,2.672,2.547   c0.614,0.781,1.083,1.615,1.406,2.5c0.322,0.886,0.484,1.818,0.484,2.797c0,1.479-0.359,2.839-1.078,4.078   c-0.719,1.24-1.803,2.276-3.25,3.109c-1.448,0.834-3.016,1.411-4.703,1.734c-1.688,0.322-3.428,0.484-5.219,0.484   c-1.209,0-2.725-0.104-4.547-0.313C322.067,61.979,319.947,61.615,317.531,61.094z"/>
</g>
<g>
</g>
<g>
</g>
<g>
</g>
<g>
</g>
<g>
</g>
<g>
</g>
</svg>